<?xml version="1.0" encoding="UTF-8" standalone="no"?>
<!-- Created with Inkscape (http://www.inkscape.org/) -->

<svg
   xmlns:dc="http://purl.org/dc/elements/1.1/"
   xmlns:cc="http://creativecommons.org/ns#"
   xmlns:rdf="http://www.w3.org/1999/02/22-rdf-syntax-ns#"
   xmlns:svg="http://www.w3.org/2000/svg"
   xmlns="http://www.w3.org/2000/svg"
   xmlns:sodipodi="http://sodipodi.sourceforge.net/DTD/sodipodi-0.dtd"
   xmlns:inkscape="http://www.inkscape.org/namespaces/inkscape"
   id="svg4056"
   version="1.1"
   inkscape:version="0.48.3.1 r9886"
   width="64.000001"
   height="64.000001"
   xml:space="preserve"
   sodipodi:docname="mobile_icon.svg"><metadata
     id="metadata4062"><rdf:RDF><cc:Work
         rdf:about=""><dc:format>image/svg+xml</dc:format><dc:type
           rdf:resource="http://purl.org/dc/dcmitype/StillImage" /><dc:title></dc:title></cc:Work></rdf:RDF></metadata><defs
     id="defs4060" /><sodipodi:namedview
     pagecolor="#ffffff"
     bordercolor="#666666"
     borderopacity="1"
     objecttolerance="10"
     gridtolerance="10"
     guidetolerance="10"
     inkscape:pageopacity="0"
     inkscape:pageshadow="2"
     inkscape:window-width="1600"
     inkscape:window-height="844"
     id="namedview4058"
     showgrid="false"
     inkscape:zoom="5.1015625"
     inkscape:cx="8.8840449"
     inkscape:cy="50.622898"
     inkscape:window-x="-2"
     inkscape:window-y="-3"
     inkscape:window-maximized="1"
     inkscape:current-layer="g4064" /><g
     id="g4064"
     inkscape:groupmode="layer"
     inkscape:label="mobile_icon"
     transform="matrix(1.25,0,0,-1.25,0,64.000001)"><path
       inkscape:connector-curvature="0"
       style="fill:#1593cb;fill-opacity:1;fill-rule:nonzero;stroke:none"
       d="m 20.875,49.800001 c -0.339875,0 -0.6995,-0.073 -1,-0.2 -0.86,-0.363 -1.95,-2 -1.95,-2 l 0.1,-4.05 -1.75,0 c -2.328,0 -4.225,-1.868 -4.225,-4.2 l 0,-33.825 c 0,-2.332 1.897,-4.2 4.225,-4.2 l 18.65,0 c 2.332,0 4.225,1.868 4.225,4.2 l 0,33.825 c 0,2.332 -1.893,4.2 -4.225,4.2 l -11.125,0 0,4.05 c 0,0 -1.091,1.637 -1.95,2 -0.301,0.127 -0.635125,0.2 -0.975,0.2 z"
       id="path4068" /><path
       inkscape:connector-curvature="0"
       id="path4072"
       style="fill:#ffffff;fill-opacity:1;fill-rule:nonzero;stroke:none"
       d="m 20.228793,38.114112 11.534414,0 c 1.209556,0 2.185584,-1.429398 2.185584,-3.204384 l 0,-4.727878 c 0,-1.77413 -0.976028,-3.200962 -2.185584,-3.200962 l -11.534414,0 c -1.209556,0 -2.185584,1.426832 -2.185584,3.200962 l 0,4.727878 c 0,1.774986 0.976028,3.204384 2.185584,3.204384 z" /><path
       inkscape:connector-curvature="0"
       id="path4074"
       style="fill:#ffffff;fill-opacity:1;fill-rule:nonzero;stroke:none"
       d="m 24.914436,23.43235 2.409128,0 c 0.252375,0 0.458529,-0.48349 0.458529,-1.086234 l 0,-1.607625 c 0,-0.599046 -0.206154,-1.086234 -0.458529,-1.086234 l -2.409128,0 c -0.252375,0 -0.458529,0.487188 -0.458529,1.086234 l 0,1.607625 c 0,0.602744 0.206154,1.086234 0.458529,1.086234 z" /><path
       inkscape:connector-curvature="0"
       id="path4076"
       style="fill:#ffffff;fill-opacity:1;fill-rule:nonzero;stroke:none"
       d="m 18.899015,23.43235 2.408202,0 c 0.253301,0 0.458529,-0.48349 0.458529,-1.086234 l 0,-1.607625 c 0,-0.599046 -0.205228,-1.086234 -0.458529,-1.086234 l -2.408202,0 c -0.253301,0 -0.455756,0.487188 -0.455756,1.086234 l 0,1.607625 c 0,0.602744 0.202455,1.086234 0.455756,1.086234 z" /><path
       inkscape:connector-curvature="0"
       id="path4078"
       style="fill:#ffffff;fill-opacity:1;fill-rule:nonzero;stroke:none"
       d="m 30.930783,23.43235 2.409127,0 c 0.252376,0 0.454831,-0.48349 0.454831,-1.086234 l 0,-1.607625 c 0,-0.599046 -0.202455,-1.086234 -0.454831,-1.086234 l -2.409127,0 c -0.252376,0 -0.458529,0.487188 -0.458529,1.086234 l 0,1.607625 c 0,0.602744 0.206153,1.086234 0.458529,1.086234 z" /><path
       inkscape:connector-curvature="0"
       id="path4080"
       style="fill:#ffffff;fill-opacity:1;fill-rule:nonzero;stroke:none"
       d="m 24.914436,17.705357 2.409128,0 c 0.252375,0 0.458529,-0.483489 0.458529,-1.087158 l 0,-1.606701 c 0,-0.602744 -0.206154,-1.087157 -0.458529,-1.087157 l -2.409128,0 c -0.252375,0 -0.458529,0.484413 -0.458529,1.087157 l 0,1.606701 c 0,0.603669 0.206154,1.087158 0.458529,1.087158 z" /><path
       inkscape:connector-curvature="0"
       id="path4082"
       style="fill:#ffffff;fill-opacity:1;fill-rule:nonzero;stroke:none"
       d="m 18.899015,17.705357 2.408202,0 c 0.253301,0 0.458529,-0.483489 0.458529,-1.087158 l 0,-1.606701 c 0,-0.602744 -0.205228,-1.087157 -0.458529,-1.087157 l -2.408202,0 c -0.253301,0 -0.455756,0.484413 -0.455756,1.087157 l 0,1.606701 c 0,0.603669 0.202455,1.087158 0.455756,1.087158 z" /><path
       inkscape:connector-curvature="0"
       id="path4084"
       style="fill:#ffffff;fill-opacity:1;fill-rule:nonzero;stroke:none"
       d="m 30.930783,17.705357 2.409127,0 c 0.252376,0 0.454831,-0.483489 0.454831,-1.087158 l 0,-1.606701 c 0,-0.602744 -0.202455,-1.087157 -0.454831,-1.087157 l -2.409127,0 c -0.252376,0 -0.458529,0.484413 -0.458529,1.087157 l 0,1.606701 c 0,0.603669 0.206153,1.087158 0.458529,1.087158 z" /><path
       inkscape:connector-curvature="0"
       id="path4086"
       style="fill:#ffffff;fill-opacity:1;fill-rule:nonzero;stroke:none"
       d="m 24.914436,11.974667 2.409128,0 c 0.252375,0 0.458529,-0.483489 0.458529,-1.087158 l 0,-1.6067007 c 0,-0.5999706 -0.206154,-1.0871578 -0.458529,-1.0871578 l -2.409128,0 c -0.252375,0 -0.458529,0.4871872 -0.458529,1.0871578 l 0,1.6067007 c 0,0.603669 0.206154,1.087158 0.458529,1.087158 z" /><path
       inkscape:connector-curvature="0"
       id="path4088"
       style="fill:#ffffff;fill-opacity:1;fill-rule:nonzero;stroke:none"
       d="m 18.899015,11.974667 2.408202,0 c 0.253301,0 0.458529,-0.483489 0.458529,-1.087158 l 0,-1.6067007 c 0,-0.5999706 -0.205228,-1.0871578 -0.458529,-1.0871578 l -2.408202,0 c -0.253301,0 -0.455756,0.4871872 -0.455756,1.0871578 l 0,1.6067007 c 0,0.603669 0.202455,1.087158 0.455756,1.087158 z" /><path
       inkscape:connector-curvature="0"
       id="path4090"
       style="fill:#ffffff;fill-opacity:1;fill-rule:nonzero;stroke:none"
       d="m 30.930783,11.974667 2.409127,0 c 0.252376,0 0.454831,-0.483489 0.454831,-1.087158 l 0,-1.6067007 c 0,-0.5999706 -0.202455,-1.0871578 -0.454831,-1.0871578 l -2.409127,0 c -0.252376,0 -0.458529,0.4871872 -0.458529,1.0871578 l 0,1.6067007 c 0,0.603669 0.206153,1.087158 0.458529,1.087158 z" /></g></svg>