<?xml version="1.0" encoding="UTF-8" standalone="no"?>
<!-- Created with Inkscape (http://www.inkscape.org/) -->

<svg
   xmlns:dc="http://purl.org/dc/elements/1.1/"
   xmlns:cc="http://creativecommons.org/ns#"
   xmlns:rdf="http://www.w3.org/1999/02/22-rdf-syntax-ns#"
   xmlns:svg="http://www.w3.org/2000/svg"
   xmlns="http://www.w3.org/2000/svg"
   xmlns:sodipodi="http://sodipodi.sourceforge.net/DTD/sodipodi-0.dtd"
   xmlns:inkscape="http://www.inkscape.org/namespaces/inkscape"
   id="svg3858"
   version="1.1"
   inkscape:version="0.48.3.1 r9886"
   width="64.000001"
   height="64.000001"
   xml:space="preserve"
   sodipodi:docname="phone_icon.svg"><metadata
     id="metadata3864"><rdf:RDF><cc:Work
         rdf:about=""><dc:format>image/svg+xml</dc:format><dc:type
           rdf:resource="http://purl.org/dc/dcmitype/StillImage" /><dc:title /></cc:Work></rdf:RDF></metadata><defs
     id="defs3862" /><sodipodi:namedview
     pagecolor="#ffffff"
     bordercolor="#666666"
     borderopacity="1"
     objecttolerance="10"
     gridtolerance="10"
     guidetolerance="10"
     inkscape:pageopacity="0"
     inkscape:pageshadow="2"
     inkscape:window-width="1600"
     inkscape:window-height="844"
     id="namedview3860"
     showgrid="false"
     inkscape:zoom="2.6074563"
     inkscape:cx="-7.3122398"
     inkscape:cy="45.492621"
     inkscape:window-x="-2"
     inkscape:window-y="-3"
     inkscape:window-maximized="1"
     inkscape:current-layer="g3866" /><g
     id="g3866"
     inkscape:groupmode="layer"
     inkscape:label="phone_icon"
     transform="matrix(1.25,0,0,-1.25,0,64.000001)"><path
       inkscape:connector-curvature="0"
       style="fill:#1593cb;fill-opacity:1;fill-rule:nonzero;stroke:none"
       d="m 19.2,47.425001 c -2.328125,-0.01013 -4.736,-0.1655 -6.9,-0.675 -2.012,-0.473 -3.948,-1.445 -5.55,-2.75 -1.805,-1.477 -3.319,-3.408 -4.3,-5.525 -1.121,-2.418 -2.545,-5.317 -1.65,-7.825 0.441,-1.242 1.809,-2.112 3.075,-2.475 2.656,-0.758 6.685,-0.573 8.225,1.025 1.703,1.762 0.106,4.972 0.875,7.3 0.293,0.898 1.205,1.7 2.15,1.7 3.529616,0 6.942876,0.09454 10.425,0 0.02434,0 0.05062,-4.6e-5 0.075,0 3.293677,0.0062 6.995578,0.426839 10.45,0 0.938,-0.113 1.853,-0.802 2.15,-1.7 0.765,-2.328 -0.828,-5.538 0.875,-7.3 1.539,-1.598 5.569,-1.783 8.225,-1.025 1.266,0.363 2.633,1.233 3.075,2.475 0.894,2.508 -0.529,5.407 -1.65,7.825 -0.981,2.117 -2.495,4.048 -4.3,5.525 -1.601,1.305 -3.538,2.277 -5.55,2.75 -4.305385,1.012739 -9.560655,0.555654 -13.275,0.55 -0.02304,0 -0.05184,-3.6e-5 -0.075,0 -1.846019,0.0028 -4.050718,0.135 -6.35,0.125 z m -4.475,-11.95 0.075,-7.75 c 0,0 -8.009,-9.566 -9.825,-15.375 -0.524,-1.675 -0.649,-3.555 -0.2,-5.25 0.328,-1.254 1.105,-3.333 2.05,-3.325 l 18.725,0.2 18.8,-0.2 c 0.941,-0.008 1.697,2.071 2.025,3.325 0.449,1.695 0.348,3.575 -0.175,5.25 -1.813,5.809 -9.85,15.375 -9.85,15.375 l 0.1,7.75 -6.125,0 0,-3.65 -4.7,0 -4.775,0 0,3.65 -6.125,0 z"
       id="path3870" /><g
       id="g4362"
       transform="translate(-19.070525,11.76027)"><path
         d="m 43.486961,13.043079 2.409128,0 c 0.252375,0 0.458529,-0.48349 0.458529,-1.086234 l 0,-1.607625 c 0,-0.5990459 -0.206154,-1.0862339 -0.458529,-1.0862339 l -2.409128,0 c -0.252375,0 -0.458529,0.487188 -0.458529,1.0862339 l 0,1.607625 c 0,0.602744 0.206154,1.086234 0.458529,1.086234 z"
         style="fill:#ffffff;fill-opacity:1;fill-rule:nonzero;stroke:none"
         id="path4074"
         inkscape:connector-curvature="0" /><path
         d="m 37.47154,13.043079 2.408202,0 c 0.253301,0 0.458529,-0.48349 0.458529,-1.086234 l 0,-1.607625 c 0,-0.5990459 -0.205228,-1.0862339 -0.458529,-1.0862339 l -2.408202,0 c -0.253301,0 -0.455756,0.487188 -0.455756,1.0862339 l 0,1.607625 c 0,0.602744 0.202455,1.086234 0.455756,1.086234 z"
         style="fill:#ffffff;fill-opacity:1;fill-rule:nonzero;stroke:none"
         id="path4076"
         inkscape:connector-curvature="0" /><path
         d="m 49.503308,13.043079 2.409127,0 c 0.252376,0 0.454831,-0.48349 0.454831,-1.086234 l 0,-1.607625 c 0,-0.5990459 -0.202455,-1.0862339 -0.454831,-1.0862339 l -2.409127,0 c -0.252376,0 -0.458529,0.487188 -0.458529,1.0862339 l 0,1.607625 c 0,0.602744 0.206153,1.086234 0.458529,1.086234 z"
         style="fill:#ffffff;fill-opacity:1;fill-rule:nonzero;stroke:none"
         id="path4078"
         inkscape:connector-curvature="0" /><path
         d="m 43.486961,7.3160861 2.409128,0 c 0.252375,0 0.458529,-0.483489 0.458529,-1.087158 l 0,-1.606701 c 0,-0.602744 -0.206154,-1.087157 -0.458529,-1.087157 l -2.409128,0 c -0.252375,0 -0.458529,0.484413 -0.458529,1.087157 l 0,1.606701 c 0,0.603669 0.206154,1.087158 0.458529,1.087158 z"
         style="fill:#ffffff;fill-opacity:1;fill-rule:nonzero;stroke:none"
         id="path4080"
         inkscape:connector-curvature="0" /><path
         d="m 37.47154,7.3160861 2.408202,0 c 0.253301,0 0.458529,-0.483489 0.458529,-1.087158 l 0,-1.606701 c 0,-0.602744 -0.205228,-1.087157 -0.458529,-1.087157 l -2.408202,0 c -0.253301,0 -0.455756,0.484413 -0.455756,1.087157 l 0,1.606701 c 0,0.603669 0.202455,1.087158 0.455756,1.087158 z"
         style="fill:#ffffff;fill-opacity:1;fill-rule:nonzero;stroke:none"
         id="path4082"
         inkscape:connector-curvature="0" /><path
         d="m 49.503308,7.3160861 2.409127,0 c 0.252376,0 0.454831,-0.483489 0.454831,-1.087158 l 0,-1.606701 c 0,-0.602744 -0.202455,-1.087157 -0.454831,-1.087157 l -2.409127,0 c -0.252376,0 -0.458529,0.484413 -0.458529,1.087157 l 0,1.606701 c 0,0.603669 0.206153,1.087158 0.458529,1.087158 z"
         style="fill:#ffffff;fill-opacity:1;fill-rule:nonzero;stroke:none"
         id="path4084"
         inkscape:connector-curvature="0" /><path
         d="m 43.486961,1.5853961 2.409128,0 c 0.252375,0 0.458529,-0.483489 0.458529,-1.08715799 l 0,-1.60670101 c 0,-0.59997 -0.206154,-1.087157 -0.458529,-1.087157 l -2.409128,0 c -0.252375,0 -0.458529,0.487187 -0.458529,1.087157 l 0,1.60670101 c 0,0.60366899 0.206154,1.08715799 0.458529,1.08715799 z"
         style="fill:#ffffff;fill-opacity:1;fill-rule:nonzero;stroke:none"
         id="path4086"
         inkscape:connector-curvature="0" /><path
         d="m 37.47154,1.5853961 2.408202,0 c 0.253301,0 0.458529,-0.483489 0.458529,-1.08715799 l 0,-1.60670101 c 0,-0.59997 -0.205228,-1.087157 -0.458529,-1.087157 l -2.408202,0 c -0.253301,0 -0.455756,0.487187 -0.455756,1.087157 l 0,1.60670101 c 0,0.60366899 0.202455,1.08715799 0.455756,1.08715799 z"
         style="fill:#ffffff;fill-opacity:1;fill-rule:nonzero;stroke:none"
         id="path4088"
         inkscape:connector-curvature="0" /><path
         d="m 49.503308,1.5853961 2.409127,0 c 0.252376,0 0.454831,-0.483489 0.454831,-1.08715799 l 0,-1.60670101 c 0,-0.59997 -0.202455,-1.087157 -0.454831,-1.087157 l -2.409127,0 c -0.252376,0 -0.458529,0.487187 -0.458529,1.087157 l 0,1.60670101 c 0,0.60366899 0.206153,1.08715799 0.458529,1.08715799 z"
         style="fill:#ffffff;fill-opacity:1;fill-rule:nonzero;stroke:none"
         id="path4090"
         inkscape:connector-curvature="0" /></g></g></svg>