<?xml version="1.0" encoding="UTF-8" standalone="no"?>
<!-- Created with Inkscape (http://www.inkscape.org/) -->

<svg
   xmlns:dc="http://purl.org/dc/elements/1.1/"
   xmlns:cc="http://creativecommons.org/ns#"
   xmlns:rdf="http://www.w3.org/1999/02/22-rdf-syntax-ns#"
   xmlns:svg="http://www.w3.org/2000/svg"
   xmlns="http://www.w3.org/2000/svg"
   xmlns:sodipodi="http://sodipodi.sourceforge.net/DTD/sodipodi-0.dtd"
   xmlns:inkscape="http://www.inkscape.org/namespaces/inkscape"
   id="svg3858"
   version="1.1"
   inkscape:version="0.48.3.1 r9886"
   width="48"
   height="48"
   xml:space="preserve"
   sodipodi:docname="telephone_icon.svg"><metadata
     id="metadata3864"><rdf:RDF><cc:Work
         rdf:about=""><dc:format>image/svg+xml</dc:format><dc:type
           rdf:resource="http://purl.org/dc/dcmitype/StillImage" /><dc:title /></cc:Work></rdf:RDF></metadata><defs
     id="defs3862" /><sodipodi:namedview
     pagecolor="#ffffff"
     bordercolor="#666666"
     borderopacity="1"
     objecttolerance="10"
     gridtolerance="10"
     guidetolerance="10"
     inkscape:pageopacity="0"
     inkscape:pageshadow="2"
     inkscape:window-width="1920"
     inkscape:window-height="1020"
     id="namedview3860"
     showgrid="false"
     inkscape:zoom="2.6074563"
     inkscape:cx="-57.744533"
     inkscape:cy="45.492621"
     inkscape:window-x="-2"
     inkscape:window-y="-3"
     inkscape:window-maximized="1"
     inkscape:current-layer="g3866" /><g
     id="g3866"
     inkscape:groupmode="layer"
     inkscape:label="phone_icon"
     transform="matrix(1.25,0,0,-1.25,0,48.000001)"><g
       id="g3115"
       transform="matrix(1.1622701,0,0,-1.1622701,-602.65665,236.86277)"><path
         sodipodi:nodetypes="scsssscsccscsssss"
         inkscape:connector-curvature="0"
         id="path5794"
         d="m 534.91246,175.32076 c -0.49703,0 -0.88235,0.053 -1.32813,0.078 -0.57815,0.0225 -1.12585,0.0317 -1.71875,0.078 -3.8264,0.2988 -7.62677,1.13928 -8.51562,1.95313 -1.839,1.6838 -2.20015,3.60837 -2.57813,5.07812 -0.85505,3.32485 -0.2475,3.58968 3.28125,3.20313 2.9727,-0.32565 2.6242,-0.24025 3.125,-2.10938 0.23475,-0.87642 0.3289,-2.0541 1.09375,-3.35937 0.40743,-0.6953 4.14825,-0.7792 6.64063,-0.78125 0.069,0 0.16325,-5e-5 0.23425,0 2.49237,0.002 6.2332,0.086 6.64062,0.78125 0.76485,1.30527 0.859,2.48295 1.09375,3.35937 0.5008,1.86905 0.2305,1.78373 3.20313,2.10938 3.5287,0.38655 4.05817,0.12175 3.20312,-3.20313 -0.37797,-1.46975 -0.661,-3.5115 -2.57812,-5.07812 -1.03845,-0.8486 -5.5681,-1.81853 -9.76563,-2.03125 -0.69055,-0.035 -1.38822,-0.078 -2.03125,-0.078 z"
         style="color:#000000;fill:#1494cc;fill-opacity:1;stroke:none;stroke-width:1.5;marker:none;visibility:visible;display:inline;overflow:visible;enable-background:accumulate" /><path
         sodipodi:nodetypes="sscsssssscssssccsss"
         inkscape:connector-curvature="0"
         id="rect5827"
         d="m 529.67808,182.00324 c -0.30962,0 -0.54687,0.2999 -0.54687,0.625 l 0,3.5519 c -2.49438,3.67867 -5.70313,8.20785 -5.70313,8.82812 l 0,1.79688 c 0,1.31157 0.96945,2.42187 2.26563,2.42187 l 18.75,0 c 1.29617,0 2.34375,-1.1103 2.34375,-2.42187 l 0,-1.5625 c 0,-0.6242 -3.14875,-5.1136 -5.70313,-8.82813 l 0,-3.78627 c 0,-0.3251 -0.23725,-0.625 -0.54687,-0.625 l -2.1875,0 c -0.30963,0 -0.54688,0.2999 -0.54688,0.625 l 0,1.28627 -5.39062,0 0,-1.28627 c 0,-0.3251 -0.23725,-0.625 -0.54688,-0.625 z"
         style="color:#000000;fill:#1494cc;fill-opacity:1;stroke:none;stroke-width:1.5;marker:none;visibility:visible;display:inline;overflow:visible;enable-background:accumulate" /><path
         inkscape:connector-curvature="0"
         id="path5909"
         d="m 531.35773,187.74264 c -0.38817,0 -0.70312,0.31495 -0.70312,0.70312 l 0,0.6328 c 0,0.38818 0.31495,0.70313 0.70312,0.70313 l 0.5625,0 c 0.3882,0 0.70313,-0.31495 0.70313,-0.70313 l 0,-0.6328 c 0,-0.38817 -0.31493,-0.70312 -0.70313,-0.70312 l -0.5625,0 z"
         style="color:#000000;fill:#ffffff;fill-opacity:1;stroke:none;stroke-width:4.9000001;marker:none;visibility:visible;display:inline;overflow:visible;enable-background:accumulate" /><path
         style="color:#000000;fill:#ffffff;fill-opacity:1;stroke:none;stroke-width:4.9000001;marker:none;visibility:visible;display:inline;overflow:visible;enable-background:accumulate"
         d="m 538.29531,187.74264 c -0.38818,0 -0.70313,0.31495 -0.70313,0.70312 l 0,0.6328 c 0,0.38818 0.31495,0.70313 0.70313,0.70313 l 0.5625,0 c 0.3882,0 0.70312,-0.31495 0.70312,-0.70313 l 0,-0.6328 c 0,-0.38817 -0.31492,-0.70312 -0.70312,-0.70312 l -0.5625,0 z"
         id="path5911"
         inkscape:connector-curvature="0" /><path
         inkscape:connector-curvature="0"
         id="path5915"
         d="m 538.29531,194.45359 c -0.38818,0 -0.70313,0.31495 -0.70313,0.70312 l 0,0.6328 c 0,0.38818 0.31495,0.70313 0.70313,0.70313 l 0.5625,0 c 0.3882,0 0.70312,-0.31495 0.70312,-0.70313 l 0,-0.6328 c 0,-0.38817 -0.31492,-0.70312 -0.70312,-0.70312 l -0.5625,0 z"
         style="color:#000000;fill:#ffffff;fill-opacity:1;stroke:none;stroke-width:4.9000001;marker:none;visibility:visible;display:inline;overflow:visible;enable-background:accumulate" /><path
         style="color:#000000;fill:#ffffff;fill-opacity:1;stroke:none;stroke-width:4.9000001;marker:none;visibility:visible;display:inline;overflow:visible;enable-background:accumulate"
         d="m 531.35773,194.45359 c -0.38817,0 -0.70312,0.31495 -0.70312,0.70312 l 0,0.6328 c 0,0.38818 0.31495,0.70313 0.70312,0.70313 l 0.5625,0 c 0.3882,0 0.70313,-0.31495 0.70313,-0.70313 l 0,-0.6328 c 0,-0.38817 -0.31493,-0.70312 -0.70313,-0.70312 l -0.5625,0 z"
         id="path5921"
         inkscape:connector-curvature="0" /><path
         inkscape:connector-curvature="0"
         id="path5923"
         d="m 534.82651,187.74264 c -0.38818,0 -0.70313,0.31495 -0.70313,0.70312 l 0,0.6328 c 0,0.38818 0.31495,0.70313 0.70313,0.70313 l 0.5625,0 c 0.3882,0 0.70312,-0.31495 0.70312,-0.70313 l 0,-0.6328 c 0,-0.38817 -0.31492,-0.70312 -0.70312,-0.70312 l -0.5625,0 z"
         style="color:#000000;fill:#ffffff;fill-opacity:1;stroke:none;stroke-width:4.9000001;marker:none;visibility:visible;display:inline;overflow:visible;enable-background:accumulate" /><path
         style="color:#000000;fill:#ffffff;fill-opacity:1;stroke:none;stroke-width:4.9000001;marker:none;visibility:visible;display:inline;overflow:visible;enable-background:accumulate"
         d="m 534.83826,191.09819 c -0.38818,0 -0.70313,0.31495 -0.70313,0.70312 l 0,0.6328 c 0,0.38818 0.31495,0.70313 0.70313,0.70313 l 0.5625,0 c 0.3882,0 0.70312,-0.31495 0.70312,-0.70313 l 0,-0.6328 c 0,-0.38817 -0.31492,-0.70312 -0.70312,-0.70312 l -0.5625,0 z"
         id="path5925"
         inkscape:connector-curvature="0" /><path
         inkscape:connector-curvature="0"
         id="path5927"
         d="m 531.38123,191.09819 c -0.38817,0 -0.70312,0.31495 -0.70312,0.70312 l 0,0.6328 c 0,0.38818 0.31495,0.70313 0.70312,0.70313 l 0.5625,0 c 0.3882,0 0.70313,-0.31495 0.70313,-0.70313 l 0,-0.6328 c 0,-0.38817 -0.31493,-0.70312 -0.70313,-0.70312 l -0.5625,0 z"
         style="color:#000000;fill:#ffffff;fill-opacity:1;stroke:none;stroke-width:4.9000001;marker:none;visibility:visible;display:inline;overflow:visible;enable-background:accumulate" /><path
         style="color:#000000;fill:#ffffff;fill-opacity:1;stroke:none;stroke-width:4.9000001;marker:none;visibility:visible;display:inline;overflow:visible;enable-background:accumulate"
         d="m 538.29531,191.09819 c -0.38818,0 -0.70313,0.31495 -0.70313,0.70312 l 0,0.6328 c 0,0.38818 0.31495,0.70313 0.70313,0.70313 l 0.5625,0 c 0.3882,0 0.70312,-0.31495 0.70312,-0.70313 l 0,-0.6328 c 0,-0.38817 -0.31492,-0.70312 -0.70312,-0.70312 l -0.5625,0 z"
         id="path5929"
         inkscape:connector-curvature="0" /><path
         inkscape:connector-curvature="0"
         id="path5931"
         d="m 534.82651,194.45359 c -0.38818,0 -0.70313,0.31495 -0.70313,0.70312 l 0,0.6328 c 0,0.38818 0.31495,0.70313 0.70313,0.70313 l 0.5625,0 c 0.3882,0 0.70312,-0.31495 0.70312,-0.70313 l 0,-0.6328 c 0,-0.38817 -0.31492,-0.70312 -0.70312,-0.70312 l -0.5625,0 z"
         style="color:#000000;fill:#ffffff;fill-opacity:1;stroke:none;stroke-width:4.9000001;marker:none;visibility:visible;display:inline;overflow:visible;enable-background:accumulate" /></g></g></svg>