<?xml version="1.0" encoding="UTF-8" standalone="no"?>
<!-- Created with Inkscape (http://www.inkscape.org/) -->

<svg
   xmlns:dc="http://purl.org/dc/elements/1.1/"
   xmlns:cc="http://creativecommons.org/ns#"
   xmlns:rdf="http://www.w3.org/1999/02/22-rdf-syntax-ns#"
   xmlns:svg="http://www.w3.org/2000/svg"
   xmlns="http://www.w3.org/2000/svg"
   xmlns:sodipodi="http://sodipodi.sourceforge.net/DTD/sodipodi-0.dtd"
   xmlns:inkscape="http://www.inkscape.org/namespaces/inkscape"
   version="1.1"
   id="svg834"
   xml:space="preserve"
   width="256"
   height="256"
   viewBox="0 0 256 256"
   sodipodi:docname="orcid_europass_icon.pdf"
   inkscape:version="0.92.3 (2405546, 2018-03-11)"><metadata
     id="metadata840"><rdf:RDF><cc:Work
         rdf:about=""><dc:format>image/svg+xml</dc:format><dc:type
           rdf:resource="http://purl.org/dc/dcmitype/StillImage" /><dc:title></dc:title></cc:Work></rdf:RDF></metadata><defs
     id="defs838" /><sodipodi:namedview
     pagecolor="#ffffff"
     bordercolor="#666666"
     borderopacity="1"
     objecttolerance="10"
     gridtolerance="10"
     guidetolerance="10"
     inkscape:pageopacity="0"
     inkscape:pageshadow="2"
     inkscape:window-width="1920"
     inkscape:window-height="1023"
     id="namedview836"
     showgrid="false"
     inkscape:zoom="3.2929688"
     inkscape:cx="128"
     inkscape:cy="128"
     inkscape:window-x="0"
     inkscape:window-y="0"
     inkscape:window-maximized="1"
     inkscape:current-layer="g842" /><g
     id="g842"
     inkscape:groupmode="layer"
     inkscape:label="orcid_europass_icon"
     transform="matrix(1.3333333,0,0,1.3333333,0,6.4e-6)"><g
       id="g844"><path
         d="m 184.27,96 c 0,48.758 -39.512,88.27 -88.27,88.27 C 47.242,184.27 7.73,144.758 7.73,96 7.73,47.242 47.242,7.73 96,7.73 c 48.758,0 88.27,39.512 88.27,88.27 z"
         style="fill:#398dc9;fill-opacity:1;fill-rule:nonzero;stroke:none"
         id="path846"
         inkscape:connector-curvature="0" /><path
         d="m 56.621,62.277 h 10.621 v 73.859 H 56.621 Z"
         style="fill:#ffffff;fill-opacity:1;fill-rule:nonzero;stroke:none"
         id="path848"
         inkscape:connector-curvature="0" /><path
         d="m 82.828,62.277 h 28.688 c 27.308,0 39.308,19.516 39.308,36.965 0,18.965 -14.828,36.961 -39.168,36.961 H 82.828 Z m 10.621,64.34 h 16.895 c 24.066,0 29.586,-18.273 29.586,-27.375 0,-14.828 -9.45,-27.379 -30.137,-27.379 H 93.449 Z"
         style="fill:#ffffff;fill-opacity:1;fill-rule:nonzero;stroke:none"
         id="path850"
         inkscape:connector-curvature="0" /><path
         d="m 68.898,46.898 c 0,3.793 -3.105,6.965 -6.964,6.965 -3.864,0 -6.965,-3.172 -6.965,-6.965 0,-3.859 3.101,-6.964 6.965,-6.964 3.859,0 6.964,3.171 6.964,6.964 z"
         style="fill:#ffffff;fill-opacity:1;fill-rule:nonzero;stroke:none"
         id="path852"
         inkscape:connector-curvature="0" /></g></g></svg>